<svg width="135" height="116" viewBox="0 0 135 116" fill="none" xmlns="http://www.w3.org/2000/svg">
<path d="M78.6266 90.2699H7.4553C5.01145 90.2699 3 88.2632 3 85.8134V7.4565C3 5.00591 5.01145 3 7.4553 3H109.213C111.659 3 113.67 5.00591 113.67 7.4565V60.326" stroke="white" stroke-width="5" stroke-miterlimit="10"/>
<path d="M113.67 13.5801L58.3339 43.6606L3 13.5801" stroke="white" stroke-width="5" stroke-miterlimit="10"/>
<path d="M132.001 85.8169C132.001 100.657 119.973 112.69 105.133 112.69C90.2884 112.69 78.2578 100.657 78.2578 85.8169C78.2578 70.9681 90.2884 58.9395 105.133 58.9395C119.973 58.9395 132.001 70.9681 132.001 85.8169Z" stroke="white" stroke-width="5" stroke-miterlimit="10"/>
<path d="M95.6172 85.8193H114.635" stroke="white" stroke-width="5" stroke-miterlimit="10"/>
</svg>
