<svg width="200" height="200" viewBox="0 0 200 200" fill="none" xmlns="http://www.w3.org/2000/svg">
<mask id="path-1-inside-1_1789_10816" fill="white">
<path fill-rule="evenodd" clip-rule="evenodd" d="M178.357 84.1685L192.215 61.6194L166.288 55.3681L170.535 29.2469L144.385 33.4888L138.126 7.59079L115.552 21.4328L99.907 0L84.2616 21.4328L61.6875 7.59079L55.4294 33.4888L29.2792 29.2469L33.5258 55.3681L7.59919 61.6194L21.4565 84.1685L0 99.7966L21.4565 115.425L7.59919 137.974L33.5258 144.225L29.2792 170.346L55.4294 166.104L61.6875 192.002L84.2616 178.16L99.907 199.593L115.552 178.16L138.126 192.002L144.385 166.104L170.535 170.346L166.288 144.225L192.215 137.974L178.357 115.425L199.814 99.7966L178.357 84.1685ZM177.463 131.946L155.783 137.081L159.359 159.183L137.232 155.611L132.092 177.267L113.094 165.658L99.907 183.519L86.7202 165.435L67.7222 177.044L62.5816 155.611L40.4545 159.183L44.0306 137.081L22.3506 131.946L33.9729 112.969L16.0924 99.7966L34.1964 86.6244L22.5741 67.6474L44.2541 62.5124L40.678 40.4098L62.8051 43.982L67.9457 22.3259L86.9437 33.9353L100.131 15.8514L113.317 33.9353L132.315 22.3259L137.456 43.982L159.583 40.4098L155.783 62.5124L177.463 67.6474L165.841 86.6244L183.945 99.7966L165.841 112.969L177.463 131.946ZM99.9063 139.091C103.61 139.091 106.612 136.092 106.612 132.393C106.612 128.694 103.61 125.695 99.9063 125.695C96.2032 125.695 93.2012 128.694 93.2012 132.393C93.2012 136.092 96.2032 139.091 99.9063 139.091ZM95.2126 67.1992H104.6V104.483H95.2126V67.1992Z"/>
</mask>
<path fill-rule="evenodd" clip-rule="evenodd" d="M178.357 84.1685L192.215 61.6194L166.288 55.3681L170.535 29.2469L144.385 33.4888L138.126 7.59079L115.552 21.4328L99.907 0L84.2616 21.4328L61.6875 7.59079L55.4294 33.4888L29.2792 29.2469L33.5258 55.3681L7.59919 61.6194L21.4565 84.1685L0 99.7966L21.4565 115.425L7.59919 137.974L33.5258 144.225L29.2792 170.346L55.4294 166.104L61.6875 192.002L84.2616 178.16L99.907 199.593L115.552 178.16L138.126 192.002L144.385 166.104L170.535 170.346L166.288 144.225L192.215 137.974L178.357 115.425L199.814 99.7966L178.357 84.1685ZM177.463 131.946L155.783 137.081L159.359 159.183L137.232 155.611L132.092 177.267L113.094 165.658L99.907 183.519L86.7202 165.435L67.7222 177.044L62.5816 155.611L40.4545 159.183L44.0306 137.081L22.3506 131.946L33.9729 112.969L16.0924 99.7966L34.1964 86.6244L22.5741 67.6474L44.2541 62.5124L40.678 40.4098L62.8051 43.982L67.9457 22.3259L86.9437 33.9353L100.131 15.8514L113.317 33.9353L132.315 22.3259L137.456 43.982L159.583 40.4098L155.783 62.5124L177.463 67.6474L165.841 86.6244L183.945 99.7966L165.841 112.969L177.463 131.946ZM99.9063 139.091C103.61 139.091 106.612 136.092 106.612 132.393C106.612 128.694 103.61 125.695 99.9063 125.695C96.2032 125.695 93.2012 128.694 93.2012 132.393C93.2012 136.092 96.2032 139.091 99.9063 139.091ZM95.2126 67.1992H104.6V104.483H95.2126V67.1992Z" fill="white"/>
<path d="M192.215 61.6194L193.493 62.4048L194.574 60.6452L192.566 60.1612L192.215 61.6194ZM178.357 84.1685L177.079 83.3831L176.353 84.5646L177.474 85.381L178.357 84.1685ZM166.288 55.3681L164.808 55.1274L164.584 56.5003L165.937 56.8264L166.288 55.3681ZM170.535 29.2469L172.015 29.4876L172.349 27.4329L170.295 27.7662L170.535 29.2469ZM144.385 33.4888L142.927 33.8411L143.253 35.192L144.625 34.9694L144.385 33.4888ZM138.126 7.59079L139.584 7.23846L139.1 5.23419L137.342 6.31205L138.126 7.59079ZM115.552 21.4328L114.341 22.3172L115.157 23.435L116.336 22.7116L115.552 21.4328ZM99.907 0L101.119 -0.884396L99.907 -2.54411L98.6954 -0.884396L99.907 0ZM84.2616 21.4328L83.4775 22.7116L84.6572 23.435L85.4732 22.3172L84.2616 21.4328ZM61.6875 7.59079L62.4717 6.31205L60.7138 5.23419L60.2295 7.23846L61.6875 7.59079ZM55.4294 33.4888L55.1892 34.9694L56.561 35.192L56.8874 33.8411L55.4294 33.4888ZM29.2792 29.2469L29.5194 27.7662L27.4646 27.4329L27.7987 29.4876L29.2792 29.2469ZM33.5258 55.3681L33.8774 56.8264L35.2296 56.5003L35.0064 55.1274L33.5258 55.3681ZM7.59919 61.6194L7.2476 60.1612L5.23993 60.6452L6.32122 62.4048L7.59919 61.6194ZM21.4565 84.1685L22.3397 85.381L23.4605 84.5646L22.7345 83.3831L21.4565 84.1685ZM0 99.7966L-0.88312 98.5841L-2.54778 99.7966L-0.88312 101.009L0 99.7966ZM21.4565 115.425L22.7345 116.21L23.4605 115.029L22.3397 114.212L21.4565 115.425ZM7.59919 137.974L6.32122 137.188L5.23993 138.948L7.2476 139.432L7.59919 137.974ZM33.5258 144.225L35.0064 144.466L35.2296 143.093L33.8774 142.767L33.5258 144.225ZM29.2792 170.346L27.7987 170.106L27.4646 172.16L29.5194 171.827L29.2792 170.346ZM55.4294 166.104L56.8874 165.752L56.561 164.401L55.1892 164.624L55.4294 166.104ZM61.6875 192.002L60.2295 192.355L60.7138 194.359L62.4717 193.281L61.6875 192.002ZM84.2616 178.16L85.4732 177.276L84.6572 176.158L83.4775 176.882L84.2616 178.16ZM99.907 199.593L98.6954 200.478L99.907 202.137L101.119 200.478L99.907 199.593ZM115.552 178.16L116.336 176.882L115.157 176.158L114.341 177.276L115.552 178.16ZM138.126 192.002L137.342 193.281L139.1 194.359L139.584 192.355L138.126 192.002ZM144.385 166.104L144.625 164.624L143.253 164.401L142.927 165.752L144.385 166.104ZM170.535 170.346L170.295 171.827L172.349 172.16L172.015 170.106L170.535 170.346ZM166.288 144.225L165.937 142.767L164.584 143.093L164.808 144.466L166.288 144.225ZM192.215 137.974L192.566 139.432L194.574 138.948L193.493 137.188L192.215 137.974ZM178.357 115.425L177.474 114.212L176.353 115.029L177.079 116.21L178.357 115.425ZM199.814 99.7966L200.697 101.009L202.362 99.7966L200.697 98.5841L199.814 99.7966ZM155.783 137.081L155.438 135.621L154.08 135.943L154.303 137.32L155.783 137.081ZM177.463 131.946L177.809 133.405L179.824 132.928L178.743 131.162L177.463 131.946ZM159.359 159.183L159.12 160.664L161.172 160.995L160.84 158.944L159.359 159.183ZM137.232 155.611L137.471 154.13L136.095 153.908L135.773 155.265L137.232 155.611ZM132.092 177.267L131.31 178.547L133.074 179.625L133.551 177.614L132.092 177.267ZM113.094 165.658L113.876 164.378L112.703 163.661L111.887 164.767L113.094 165.658ZM99.907 183.519L98.695 184.402L99.8995 186.054L101.114 184.41L99.907 183.519ZM86.7202 165.435L87.9322 164.551L87.1176 163.434L85.938 164.155L86.7202 165.435ZM67.7222 177.044L66.2636 177.394L66.7446 179.399L68.5043 178.324L67.7222 177.044ZM62.5816 155.611L64.0402 155.261L63.7158 153.909L62.3425 154.13L62.5816 155.611ZM40.4545 159.183L38.9738 158.944L38.6418 160.995L40.6936 160.664L40.4545 159.183ZM44.0306 137.081L45.5113 137.32L45.7342 135.943L44.3763 135.621L44.0306 137.081ZM22.3506 131.946L21.0714 131.162L19.9899 132.928L22.0048 133.405L22.3506 131.946ZM33.9729 112.969L35.252 113.752L35.9712 112.578L34.8625 111.761L33.9729 112.969ZM16.0924 99.7966L15.2099 98.5837L13.5532 99.7891L15.2027 101.004L16.0924 99.7966ZM34.1964 86.6244L35.0789 87.8373L36.199 87.0223L35.4755 85.8409L34.1964 86.6244ZM22.5741 67.6474L22.2284 66.1878L20.2135 66.665L21.2949 68.4308L22.5741 67.6474ZM44.2541 62.5124L44.5998 63.972L45.9577 63.6504L45.7348 62.2728L44.2541 62.5124ZM40.678 40.4098L40.9171 38.929L38.8653 38.5978L39.1973 40.6494L40.678 40.4098ZM62.8051 43.982L62.566 45.4628L63.9425 45.685L64.2645 44.3284L62.8051 43.982ZM67.9457 22.3259L68.7279 21.0459L66.9637 19.9679L66.4863 21.9794L67.9457 22.3259ZM86.9437 33.9353L86.1615 35.2152L87.3411 35.9361L88.1557 34.8191L86.9437 33.9353ZM100.131 15.8514L101.342 14.9676L100.131 13.3055L98.9185 14.9676L100.131 15.8514ZM113.317 33.9353L112.105 34.8191L112.92 35.9361L114.099 35.2152L113.317 33.9353ZM132.315 22.3259L133.775 21.9794L133.297 19.9679L131.533 21.0459L132.315 22.3259ZM137.456 43.982L135.997 44.3284L136.319 45.685L137.695 45.4628L137.456 43.982ZM159.583 40.4098L161.061 40.6639L161.417 38.5943L159.344 38.929L159.583 40.4098ZM155.783 62.5124L154.305 62.2583L154.066 63.6472L155.438 63.972L155.783 62.5124ZM177.463 67.6474L178.743 68.4308L179.824 66.665L177.809 66.1878L177.463 67.6474ZM165.841 86.6244L164.562 85.8409L163.838 87.0223L164.959 87.8373L165.841 86.6244ZM183.945 99.7966L184.828 101.01L186.495 99.7966L184.828 98.5837L183.945 99.7966ZM165.841 112.969L164.959 111.756L163.838 112.571L164.562 113.752L165.841 112.969ZM104.6 67.1992H106.1V65.6992H104.6V67.1992ZM95.2126 67.1992V65.6992H93.7126V67.1992H95.2126ZM104.6 104.483V105.983H106.1V104.483H104.6ZM95.2126 104.483H93.7126V105.983H95.2126V104.483ZM190.937 60.834L177.079 83.3831L179.635 84.9539L193.493 62.4048L190.937 60.834ZM165.937 56.8264L191.863 63.0776L192.566 60.1612L166.64 53.9099L165.937 56.8264ZM169.054 29.0062L164.808 55.1274L167.769 55.6088L172.015 29.4876L169.054 29.0062ZM144.625 34.9694L170.775 30.7275L170.295 27.7662L144.144 32.0081L144.625 34.9694ZM136.668 7.94312L142.927 33.8411L145.843 33.1365L139.584 7.23846L136.668 7.94312ZM116.336 22.7116L138.911 8.86953L137.342 6.31205L114.768 20.1541L116.336 22.7116ZM98.6954 0.884396L114.341 22.3172L116.764 20.5484L101.119 -0.884396L98.6954 0.884396ZM85.4732 22.3172L101.119 0.884396L98.6954 -0.884396L83.0501 20.5484L85.4732 22.3172ZM60.9034 8.86954L83.4775 22.7116L85.0457 20.1541L62.4717 6.31205L60.9034 8.86954ZM56.8874 33.8411L63.1456 7.94312L60.2295 7.23846L53.9714 33.1365L56.8874 33.8411ZM29.0391 30.7275L55.1892 34.9694L55.6696 32.0081L29.5194 27.7662L29.0391 30.7275ZM35.0064 55.1274L30.7598 29.0062L27.7987 29.4876L32.0453 55.6088L35.0064 55.1274ZM7.95078 63.0776L33.8774 56.8264L33.1742 53.9099L7.2476 60.1612L7.95078 63.0776ZM22.7345 83.3831L8.87716 60.834L6.32122 62.4048L20.1786 84.9539L22.7345 83.3831ZM0.88312 101.009L22.3397 85.381L20.5734 82.956L-0.88312 98.5841L0.88312 101.009ZM22.3397 114.212L0.88312 98.5841L-0.88312 101.009L20.5734 116.637L22.3397 114.212ZM8.87716 138.759L22.7345 116.21L20.1786 114.639L6.32122 137.188L8.87716 138.759ZM33.8774 142.767L7.95078 136.516L7.2476 139.432L33.1742 145.683L33.8774 142.767ZM30.7598 170.587L35.0064 144.466L32.0453 143.984L27.7987 170.106L30.7598 170.587ZM55.1892 164.624L29.0391 168.866L29.5194 171.827L55.6696 167.585L55.1892 164.624ZM63.1456 191.65L56.8874 165.752L53.9714 166.457L60.2295 192.355L63.1456 191.65ZM83.4775 176.882L60.9034 190.724L62.4717 193.281L85.0457 179.439L83.4775 176.882ZM101.119 198.709L85.4732 177.276L83.0501 179.045L98.6954 200.478L101.119 198.709ZM114.341 177.276L98.6954 198.709L101.119 200.478L116.764 179.045L114.341 177.276ZM138.911 190.724L116.336 176.882L114.768 179.439L137.342 193.281L138.911 190.724ZM142.927 165.752L136.668 191.65L139.584 192.355L145.843 166.457L142.927 165.752ZM170.775 168.866L144.625 164.624L144.144 167.585L170.295 171.827L170.775 168.866ZM164.808 144.466L169.054 170.587L172.015 170.106L167.769 143.984L164.808 144.466ZM191.863 136.516L165.937 142.767L166.64 145.683L192.566 139.432L191.863 136.516ZM177.079 116.21L190.937 138.759L193.493 137.188L179.635 114.639L177.079 116.21ZM198.931 98.5841L177.474 114.212L179.241 116.637L200.697 101.009L198.931 98.5841ZM177.474 85.381L198.931 101.009L200.697 98.5841L179.241 82.956L177.474 85.381ZM156.129 138.54L177.809 133.405L177.118 130.486L155.438 135.621L156.129 138.54ZM160.84 158.944L157.264 136.841L154.303 137.32L157.879 159.423L160.84 158.944ZM136.993 157.092L159.12 160.664L159.599 157.703L137.471 154.13L136.993 157.092ZM133.551 177.614L138.692 155.958L135.773 155.265L130.632 176.921L133.551 177.614ZM112.312 166.938L131.31 178.547L132.874 175.987L113.876 164.378L112.312 166.938ZM101.114 184.41L114.301 166.549L111.887 164.767L98.7003 182.628L101.114 184.41ZM85.5082 166.318L98.695 184.402L101.119 182.635L87.9322 164.551L85.5082 166.318ZM68.5043 178.324L87.5023 166.715L85.938 164.155L66.94 175.764L68.5043 178.324ZM61.1229 155.961L66.2636 177.394L69.1808 176.694L64.0402 155.261L61.1229 155.961ZM40.6936 160.664L62.8206 157.092L62.3425 154.13L40.2155 157.703L40.6936 160.664ZM42.5499 136.841L38.9738 158.944L41.9353 159.423L45.5113 137.32L42.5499 136.841ZM22.0048 133.405L43.6849 138.54L44.3763 135.621L22.6963 130.486L22.0048 133.405ZM32.6937 112.185L21.0714 131.162L23.6297 132.729L35.252 113.752L32.6937 112.185ZM15.2027 101.004L33.0832 114.177L34.8625 111.761L16.9821 98.5889L15.2027 101.004ZM33.3138 85.4114L15.2099 98.5837L16.9749 101.01L35.0789 87.8373L33.3138 85.4114ZM21.2949 68.4308L32.9172 87.4078L35.4755 85.8409L23.8532 66.864L21.2949 68.4308ZM43.9084 61.0528L22.2284 66.1878L22.9198 69.107L44.5998 63.972L43.9084 61.0528ZM39.1973 40.6494L42.7734 62.752L45.7348 62.2728L42.1588 40.1702L39.1973 40.6494ZM63.0441 42.5011L40.9171 38.929L40.439 41.8906L62.566 45.4628L63.0441 42.5011ZM66.4863 21.9794L61.3456 43.6355L64.2645 44.3284L69.4051 22.6723L66.4863 21.9794ZM87.7258 32.6554L68.7279 21.0459L67.1635 23.6058L86.1615 35.2152L87.7258 32.6554ZM98.9185 14.9676L85.7317 33.0515L88.1557 34.8191L101.342 16.7351L98.9185 14.9676ZM114.529 33.0515L101.342 14.9676L98.9185 16.7351L112.105 34.8191L114.529 33.0515ZM131.533 21.0459L112.535 32.6554L114.099 35.2152L133.097 23.6058L131.533 21.0459ZM138.915 43.6355L133.775 21.9794L130.856 22.6723L135.997 44.3284L138.915 43.6355ZM159.344 38.929L137.217 42.5011L137.695 45.4628L159.822 41.8906L159.344 38.929ZM157.262 62.7666L161.061 40.6639L158.105 40.1557L154.305 62.2583L157.262 62.7666ZM177.809 66.1878L156.129 61.0528L155.438 63.972L177.118 69.107L177.809 66.1878ZM167.12 87.4078L178.743 68.4308L176.184 66.864L164.562 85.8409L167.12 87.4078ZM184.828 98.5837L166.724 85.4114L164.959 87.8373L183.063 101.01L184.828 98.5837ZM166.724 114.182L184.828 101.01L183.063 98.5837L164.959 111.756L166.724 114.182ZM178.743 131.162L167.12 112.185L164.562 113.752L176.184 132.729L178.743 131.162ZM105.112 132.393C105.112 135.262 102.783 137.591 99.9063 137.591V140.591C104.436 140.591 108.112 136.922 108.112 132.393H105.112ZM99.9063 127.195C102.783 127.195 105.112 129.524 105.112 132.393H108.112C108.112 127.864 104.436 124.195 99.9063 124.195V127.195ZM94.7012 132.393C94.7012 129.524 97.03 127.195 99.9063 127.195V124.195C95.3763 124.195 91.7012 127.864 91.7012 132.393H94.7012ZM99.9063 137.591C97.03 137.591 94.7012 135.262 94.7012 132.393H91.7012C91.7012 136.922 95.3763 140.591 99.9063 140.591V137.591ZM104.6 65.6992H95.2126V68.6992H104.6V65.6992ZM106.1 104.483V67.1992H103.1V104.483H106.1ZM95.2126 105.983H104.6V102.983H95.2126V105.983ZM93.7126 67.1992V104.483H96.7126V67.1992H93.7126Z" fill="#1F60BB" mask="url(#path-1-inside-1_1789_10816)"/>
</svg>
